<!--?xml version="1.0" standalone="no"?-->
    <svg id="sw-js-blob-svg" viewBox="0 0 100 100" xmlns="http://www.w3.org/2000/svg" version="1.1">
        <defs> 
             <linearGradient id="sw-gradient" x1="0" x2="1" y1="1" y2="0">
                            <stop id="stop1" stop-color="rgba(139, 190, 151, 1)" offset="0%"></stop>
                            <stop id="stop2" stop-color="rgba(141.27, 210.158, 157.479, 1)" offset="100%"></stop>
                        </linearGradient>
                    </defs>
                <path fill="url(#sw-gradient)" d="M23.4,-34.9C29.6,-32.4,33.3,-24.7,35.1,-17.1C36.9,-9.5,36.8,-2.1,35,4.5C33.3,11.2,30,17.2,25.3,21.2C20.7,25.2,14.7,27.4,8.6,29C2.6,30.6,-3.5,31.6,-11,31.9C-18.4,32.2,-27.2,31.7,-33.5,27.4C-39.8,23.1,-43.5,14.9,-44.6,6.5C-45.7,-2,-44.2,-10.7,-38.6,-15.4C-33,-20.1,-23.3,-20.7,-16.2,-22.7C-9.1,-24.8,-4.6,-28.2,2,-31.4C8.6,-34.5,17.2,-37.3,23.4,-34.9Z" width="100%" height="100%" transform="translate(50 50)" stroke-width="0" style="transition: all 0.3s ease 0s;" stroke="url(#sw-gradient)"></path>
              </svg>